<?xml version="1.0" standalone="no"?>
<!DOCTYPE svg PUBLIC "-//W3C//DTD SVG 1.1//EN" "http://www.w3.org/Graphics/SVG/1.1/DTD/svg11.dtd">
<svg xmlns="http://www.w3.org/2000/svg">
<metadata>Generated by Fontastic.me</metadata>
<defs>
<font id="wl-theme-b" horiz-adv-x="512">
<font-face font-family="wl-theme-b" units-per-em="512" ascent="480" descent="-32"/>
<missing-glyph horiz-adv-x="512" />

<glyph glyph-name="search" unicode="&#97;" d="M498 14c-19-19-49-19-68 0l-85 85c-35-22-76-36-121-36-124 0-224 101-224 225 0 124 100 224 224 224 124 0 225-100 225-224 0-45-14-86-36-121l85-85c19-19 19-49 0-68z m-274 434c-88 0-160-72-160-160 0-89 72-161 160-161 89 0 161 72 161 161 0 88-72 160-161 160z"/>
<glyph glyph-name="angle-left" unicode="&#98;" d="M344 357c0-3-1-5-3-7l-112-112 112-113c2-1 3-4 3-6 0-3-1-5-3-7l-14-14c-2-2-5-3-7-3-2 0-5 1-7 3l-133 133c-2 2-3 4-3 7 0 2 1 4 3 6l133 133c2 2 5 3 7 3 2 0 5-1 7-3l14-14c2-2 3-4 3-6z"/>
<glyph glyph-name="angle-right" unicode="&#99;" d="M335 238c0-3-1-5-3-7l-133-133c-2-2-5-3-7-3-2 0-5 1-7 3l-14 14c-2 2-3 4-3 7 0 2 1 5 3 6l112 113-112 112c-2 2-3 4-3 7 0 2 1 4 3 6l14 14c2 2 5 3 7 3 2 0 5-1 7-3l133-133c2-2 3-4 3-6z"/>
<glyph glyph-name="fashion-and-accessories" unicode="&#100;" d="M503 286l-87 134c-6 11-17 19-28 24l-59 15-5 51-47-73-21-64-12 37c3-1 4-2 4-2l5 10c0 0-5 2-13 4l-5 15-47 75-5-53-59-15c-13-5-22-13-28-24l-87-134c-7-9-9-17-9-26l0-164 64 0 0 43-43 0 43 21 0 66c0 7 2 13 6 17l37 54 0-276c0-11 67-21 149-21 82 0 149 10 149 21l0 276 37-54c4-4 6-10 6-17l0-66 43-21-43 0 0-43 64 0 0 164c0 9-2 17-9 26z"/>
<glyph glyph-name="travel-and-holidays" unicode="&#101;" d="M307 472c0 0 156 118 184-66-77 64-152 41-165 13 54 19 271-45 135-222-5 109-90 179-154 184-47-7-152-50-169-186-87 181 36 245 126 235-38 38-128 30-156-41-6 103 84 169 199 83m-308-386c0 0 47-86 163-86 102 0 164 43 235 43 85 0 115-43 115-43 0 0-45 86-141 86-64 0-120-43-224-43-107 0-148 43-148 43m146-22c55 0 96 13 132 24 2 0 4 2 6 2 69 86 47 256 47 256l-21 13-28-13c-4-192-92-258-147-282 4 0 6 0 11 0"/>
<glyph glyph-name="camera" unicode="&#102;" d="M256 307c22 0 40-7 55-22 14-15 22-33 22-55 0-21-8-39-23-54-15-15-33-22-54-22-21 0-39 7-54 22-15 15-23 33-23 54 0 22 8 40 23 55 15 15 33 22 54 22m205 77c14 0 26-5 36-15 10-10 15-22 15-36 0 0 0-231 0-231 0-13-5-25-15-35-10-11-22-16-36-16 0 0-410 0-410 0-13 0-25 5-36 16-10 10-15 22-15 35 0 0 0 231 0 231 0 14 5 26 15 36 11 10 23 15 36 15 0 0 62 0 62 0 9 0 16 5 20 15 0 0 15 47 15 47 4 10 11 15 21 15 0 0 174 0 174 0 10 0 17-5 21-15 0 0 15-47 15-47 4-10 11-15 20-15 0 0 62 0 62 0m-205-282c36 0 66 13 91 38 25 25 37 55 37 90 0 36-12 66-37 91-25 25-55 37-91 37-35 0-66-12-91-37-25-25-37-55-37-91 0-35 12-65 37-90 25-25 56-38 91-38m187 195c5 0 9 2 13 6 3 3 5 8 5 12 0 5-2 9-5 13-4 3-8 5-13 5-12 0-18-6-18-18 0-5 2-10 6-13 3-3 8-5 12-5"/>
<glyph glyph-name="flowers-and-gifts" unicode="&#103;" d="M278 362c177 2 210 24 210 24 0 90-89 124-89 124-18-33-50-69-101-103-2 11-11 19-21 19l-43 0c-11 0-20-8-21-19-51 34-83 70-101 103 0 0-90-34-90-124 0 0 33-22 211-24 0 0 1 0 1 0l43 0c0 0 0 0 1 0z m-205 51c1 15 18 31 26 36 23-24 71-46 114-53l0-13c0-6 3-12 8-16-43 7-115 22-148 46z m225-30l0 13c42 7 90 29 114 53 8-5 25-21 25-36-33-24-104-39-147-46 5 4 8 10 8 16z m-298-361c0-12 10-22 21-22l213 0 0 149-234 0z m0 297l0-127 234 0 0 149-213 0c-11 0-21-10-21-22z m277-319l212 0c12 0 22 10 22 22l0 127-234 0z m212 341l-212 0 0-149 234 0 0 127c0 12-10 22-22 22z"/>
<glyph glyph-name="babyroom" unicode="&#104;" d="M170 143c0 0 27-57 85-57 57 0 85 57 85 57 0 0-26-14-85-14-60 0-85 14-85 14z m300 110c-13 86-82 153-172 169 6 36 29 48 30 49l-19 38c-2-1-44-23-53-83 0 0-1 0-1 0-3 0-5 0-7 0-14 27-42 43-78 43l0-43c11 0 21-2 28-6-84-20-146-84-157-165-23-8-39-30-39-56 0-27 17-50 40-57 14-38 64-139 215-139 151 0 201 101 214 139 22 8 39 30 39 55 0 26-17 48-40 56z m-16-71l-17 0-3-17c-1-2-26-119-177-119-150 0-176 114-177 119l-4 17-17 0c-7 0-15 7-15 17 0 9 8 17 17 17l20 0 1 20c4 84 78 148 173 148 95 0 168-63 174-150l1-20 20 0c10 0 17-8 17-17 0-8-8-15-13-15z m-242 53c0-24-19-43-42-43-24 0-43 19-43 43 0 23 19 42 43 42 23 0 42-19 42-42z m170 0c0-24-19-43-42-43-24 0-43 19-43 43 0 23 19 42 43 42 23 0 42-19 42-42z"/>
<glyph glyph-name="other-services" unicode="&#105;" d="M512 256l-74-256-438 0 0 384 154 0 38-64 256 0 0-43-382 0-35-155 12-15 42 149z"/>
<glyph glyph-name="cocktail" unicode="&#106;" d="M500 356l0 17-342 0c20 7 53 21 44 38-11 24-60-27-60-27 0 0 3 70-23 61-28-8 9-66 9-66 0 0-68 24-68-4 0-30 68-15 68-15 0 0-43-53-17-64 20-6 27 40 29 58l168-187 0-106-115-39 0-21 251 0 0 21-114 39 0 106z m-33-4l-29-32-183 0 94-100-30-33-148 165z m-303-70c-9-3-17-5-26-5-53 0-95 43-95 96 0 53 42 96 95 96 43 0 77-26 89-64l45 0c-15 62-68 106-134 106-76 0-138-61-138-138 0-77 62-138 138-138 19 0 38 4 55 13z"/>
<glyph glyph-name="student" unicode="&#107;" d="M415 245l0 17c7-4 10-6 10-6l0 63c0 0-63 43-169 43-66 0-116-17-144-29 21 24 66 50 144 50 146 0 190-64 190-64l0-48 64 84-254 155-254-155 35-36c-2-12-1-21-1-23l0-147c-16-4-28-18-28-35 0-10 5-19 11-26-5-6-8-13-8-22 0-26 33-64 33-64 0 0 34 38 34 64 0 9-3 16-9 22 7 7 11 16 11 26 0 16-9 29-23 34l0 28c7-23 25-33 39-36 32-67 96-119 159-127l1-1 1 1c63 8 127 60 159 127 17 4 41 18 41 53 0 35-25 48-42 52z m-358-36l0 87 0 2c0 0 0 0 0 1l30-30 0-13c0 0 3 2 10 6l0-17c-14-3-33-13-40-36z m351-48l-7-1-2-6c-28-62-86-112-143-120-57 8-115 58-143 120l-2 6-7 1c-3 0-28 2-28 32 0 28 24 31 28 31l15 0 0 46c25 9 69 18 137 18 68 0 112-9 137-18l0-46 15 0c3 0 28-2 28-31 0-29-24-32-28-32z"/>
<glyph glyph-name="heart" unicode="&#108;" d="M256 80c200 157 192 212 192 256 0 43-36 96-96 96-60 0-96-64-96-64 0 0-36 64-96 64-60 0-96-53-96-96 0-44-7-99 192-256z"/>
<glyph glyph-name="guitar" unicode="&#109;" d="M507 461l-47 46c-4 2-10 2-15 0l-16-17-9 9-6-11 8-8-8-9-11 9-8-9 8-8-17-17c-4-4-4-10 0-15l-71-71c-22 15-47 23-70 23-23 0-44-9-61-23-8-9-17-21-19-34-8-25-32-42-57-42-29 0-55-11-76-30-48-48-38-137 23-196 36-36 81-55 121-55 29 0 57 11 78 30 19 19 29 46 29 76 0 27 17 50 42 57 13 4 24 10 34 19 32 32 31 86 0 131l72 71c4-4 10-4 14 0l17 17 9-9 8 9-8 8 8 9 9-7 8 9-8 8 19 15c4 4 4 11 0 15z m-171-253c-6-6-13-9-21-13-38-10-63-46-66-88 0-15-4-36-21-53-17-17-40-21-55-21-33 0-69 17-97 44-48 49-59 116-23 152 17 17 38 21 53 21 42 0 76 27 89 65 2 9 6 15 12 21 13 13 28 15 38 15 16 0 32-5 47-14l-60-60c-3 0-5 0-8 0-29 0-53-23-53-52 0-29 24-53 53-53 29 0 53 24 53 53 0 2-1 5-1 7l60 60c19-31 20-64 0-84z m74 230l44 44 8-8-44-45z m27-28l-8 9 44 44 8-9z m-274-311l-65 66 19 19 66-66z"/>
<glyph glyph-name="telephone" unicode="&#110;" d="M435 152c-1 6-4 10-9 13l-74 43 0 0c-3 2-7 3-10 3-6 0-12-3-16-7l-22-21c-1-1-4-2-5-3 0 0-25 2-71 48-46 46-48 71-48 71 0 1 2 4 3 5l18 19c7 6 8 17 5 26l-41 76c-3 6-9 10-15 10-5 0-9-2-13-5l-50-50c-5-5-9-14-10-20 0-4-9-81 97-186 89-90 159-97 179-97 4 0 6 0 7 0 6 1 15 5 20 10l50 50c4 5 6 10 5 15z"/>
<glyph glyph-name="finance-and-insurance" unicode="&#111;" d="M1 512l0-512 384 0 126 128 0 384z m338-468l-294 0 0 424 294 0z m-163 119l0 82c-31 8-54 19-68 34-14 15-22 33-22 54 0 22 8 40 25 54 16 15 38 23 65 26l0 19 34 0 0-19c25-3 44-10 59-22 15-12 24-27 28-47l-59-6c-4 15-13 26-28 31l0-77c37-8 63-19 77-33 13-14 20-31 20-52 0-24-9-44-26-60-17-17-41-27-71-30l0-37-34 0 0 36c-28 3-50 11-67 25-17 14-27 34-32 60l61 6c3-11 8-20 14-27 7-8 15-14 24-17z m0 207c-10-3-17-7-23-14-5-6-8-13-8-21 0-7 3-13 8-19 5-6 12-11 23-14l0 68z m34-210c11 2 21 7 28 14 8 7 11 16 11 26 0 8-3 16-9 22-6 7-16 12-30 15z"/>
<glyph glyph-name="shoes-and-bags" unicode="&#112;" d="M514 110c0 73-84 77-137 114-7 4-13 13-22 13-102-7-184 83-197 100-44 69-62 94-137 94-10-23-21-47-21-85 0-62 58-64 58-257l28 0c0 45 0 193 0 193 75 0 113-193 218-193 169 0 210 11 210 21"/>
<glyph glyph-name="dumbbell" unicode="&#113;" d="M342 301l-169 0 0 127-64 0 0-338 64 0 0 126 169 0 0-126 64 0 0 338-64 0z m169 0l-42 0 0 106-42 0 0-296 42 0 0 105 42 0z m-465 0l-42 0 0-85 42 0 0-105 42 0 0 296-42 0z"/>
<glyph glyph-name="bungalow" unicode="&#114;" d="M256 487l-253-168c0-13 19-21 43-21 23 0 42 8 42 21 0-17 23-31 52-31 29 0 53 14 53 31 0-23 27-42 63-42 35 0 63 19 63 42 0-17 23-31 52-31 30 0 53 14 53 31 0-13 19-21 42-21 23 0 42 8 42 21l-252 168m210-210c-9 0-15 0-21 2l0-170-126 0 0 168c-15-13-38-21-63-21-28 0-51 8-66 23-12-8-29-12-50-12-23 0-44 6-57 18-10-6-23-8-37-8-9 0-15 0-21 2l0-254 462 0 0 254c-7-2-13-2-21-2z m-231-147l-126 0 0 84 126 0 0-84"/>
<glyph glyph-name="sports-entertainment" unicode="&#115;" d="M256 512c-141 0-256-115-256-256 0-141 115-256 256-256 141 0 256 115 256 256 0 141-115 256-256 256z m173-391l-4 30-79-17-43-70 29-14c-24-9-49-14-76-14-27 0-52 5-76 14l29 14-43 70-79 17-4-30c-29 37-47 84-47 135 0 2 1 5 1 7l21-22 55 62-8 81-32-6c29 43 72 75 123 89l-15-28 75-32 75 32-15 28c51-14 94-46 123-89l-32 6-8-81 55-62 21 22c0-2 1-5 1-7 0-51-18-98-47-135z m-263 154l35-104 110 0 35 104-90 66z"/>
<glyph glyph-name="leisure-and-entertainment" unicode="&#116;" d="M166 292c39 0 67 30 67 30 0 0-37 30-64 30-35 0-60-23-60-23 0 0 21-35 57-37z m90 177c-158 0-235 43-235 43 0-448 235-512 235-512 0 0 235 43 235 512 0 0-77-43-235-43z m0-277c-38 0-85 21-85 21 0 0 30-76 85-76l0-92c-38 17-175 98-192 405 45-13 107-23 192-23z m90 102c-39 0-67 30-67 30 0 0 37 30 64 30 32 0 60-23 60-23 0 0-21-37-57-37z"/>
<glyph glyph-name="books-movies-and-music" unicode="&#117;" d="M0 32l150 0 0-32-150 0z m0 35l150 0 0 378-150 0z m107 134l0-88-65 0 0 88z m-107 311l150 0 0-32-150 0z m166-480l150 0 0-32-150 0z m0 35l150 0 0 378-150 0z m107 134l0-88-65 0 0 88z m-107 311l150 0 0-32-150 0z m285-35l0-214c0 0 0-1 0-1 0-1 0-2 0-3 0-27-26-54-57-61-31-7-57 7-57 34 0 27 26 54 57 61 10 3 20 2 28 0l0 187z m61-167l0-214c0-1 0-1 0-2 0-1 0-2 0-3 0-27-26-54-57-61-31-7-57 7-57 34 0 27 26 54 57 62 10 2 20 2 28-1l0 187z"/>
<glyph glyph-name="menu" unicode="&#118;" d="M512 293c0 6-5 11-11 11l-490 0c-6 0-11-5-11-11l0-74c0-6 5-11 11-11l490 0c6 0 11 5 11 11z m0 192c0 6-5 11-11 11l-490 0c-6 0-11-5-11-11l0-74c0-6 5-11 11-11l490 0c6 0 11 5 11 11z m0-384c0 6-5 11-11 11l-490 0c-6 0-11-5-11-11l0-74c0-6 5-11 11-11l490 0c6 0 11 5 11 11z"/>
<glyph glyph-name="facebook" unicode="&#119;" d="M290 458c0-23 0-67 0-67 0 0-50 2-58-10-5-10-4-33-5-53 21 0 42 0 62 0-1-24-4-47-7-69-18 0-53 0-53 0l0-196c0 0-56 0-83 0 0 61 0 132 0 196-13 0-27 0-40 0 0 23 0 46 0 69 13 0 26 0 39 0 1 45 0 84 22 107 26 26 71 23 123 23z"/>
<glyph glyph-name="google" unicode="&#120;" d="M202 394c-9 0-18 0-28 0 17-16 33-34 32-65-1-31-20-44-39-58-4-3-10-10-12-14-6-18 12-27 20-34 8-6 15-11 22-16 13-11 25-27 25-51 0-28-16-47-33-59-18-13-43-21-69-24-31-2-59 1-81 10-20 9-40 26-39 53 0 14 6 28 13 37 23 27 63 34 111 38-2 4-9 11-12 19-3 9-1 20 4 28-31-4-56 5-72 21-13 14-25 36-19 62 5 22 18 39 35 50 17 12 39 20 66 20 34 0 71 0 106 0m-166-44c-7-18-2-42 4-58 8-17 19-31 31-37 22-11 50 0 58 18 3 5 4 13 4 18 3 35-16 70-37 82-6 4-17 5-26 4-18-2-30-14-34-27z m-4-185c-7-5-15-11-19-23-4-8-4-19-1-28 7-24 35-37 64-40 32-2 65 3 78 25 8 13 8 30 0 42-9 14-21 21-33 29-4 3-8 8-13 9-3 1-11 0-15 0-25-1-45-5-61-14z m251 223c6 0 13 0 20 0 0-20 0-42 0-62 20 0 42 0 63 0 0-7 0-14 0-21-21 0-42 0-63 0 0-22 0-42 0-64-6 0-14 0-20 0 0 22 0 43 0 64-22 0-43 0-64 0 0 6 0 13 0 21 22 0 43 0 64 0 0 20 0 40 0 61 0 1 0 1 0 1z"/>
<glyph glyph-name="twitter" unicode="&#121;" d="M395 400c-1-15-23-30-37-41 14-190-202-308-358-213 44 0 93 12 119 37-38 7-65 24-75 57 11 1 27-2 34 3-34 13-62 33-64 80 12-2 19-9 34-7-22 15-48 70-25 110 41-45 92-80 171-87-20 85 92 136 142 76 19 4 36 11 52 18-7-19-21-32-34-44 15 2 31 3 41 11z"/>
<glyph glyph-name="caret-down-two" unicode="&#122;" d="M402 311c0-5-2-9-5-13l-128-128c-4-4-8-5-13-5-5 0-9 1-13 5l-128 128c-3 4-5 8-5 13 0 5 2 9 5 13 4 3 8 5 13 5l256 0c5 0 9-2 13-5 3-4 5-8 5-13z"/>
<glyph glyph-name="caret-up-two" unicode="&#65;" d="M402 165c0-5-2-10-5-13-4-4-8-6-13-6l-256 0c-5 0-9 2-13 6-3 3-5 8-5 13 0 5 2 9 5 12l128 128c4 4 8 6 13 6 5 0 9-2 13-6l128-128c3-3 5-7 5-12z"/>
<glyph glyph-name="angle-down" unicode="&#66;" d="M399 302c0-3-1-5-3-7l-133-133c-2-2-5-3-7-3-2 0-5 1-7 3l-133 133c-2 2-3 4-3 7 0 2 1 4 3 6l15 15c1 1 4 2 6 2 3 0 5-1 7-2l112-113 112 113c2 1 4 2 7 2 2 0 5-1 6-2l15-15c2-2 3-4 3-6z"/>
<glyph glyph-name="angle-up" unicode="&#67;" d="M399 174c0-3-1-5-3-7l-15-14c-1-2-4-3-6-3-3 0-5 1-7 3l-112 112-112-112c-2-2-4-3-7-3-2 0-5 1-6 3l-15 14c-2 2-3 4-3 7 0 2 1 4 3 6l133 133c2 2 5 3 7 3 2 0 5-1 7-3l133-133c2-2 3-4 3-6z"/>
<glyph glyph-name="play" unicode="&#68;" d="M256 512c-142 0-256-114-256-256 0-142 114-256 256-256 142 0 256 114 256 256 0 142-114 256-256 256z m0-468c-117 0-212 95-212 212 0 117 95 212 212 212 117 0 212-95 212-212 0-117-95-212-212-212z m-79 340l0-256 222 128z"/>
<glyph glyph-name="icon-close" unicode="&#69;" d="M294 256l79-78c9-10 9-25 0-34-9-9-25-9-34 0l-78 78-78-78c-9-9-24-9-33 0-10 9-10 24 0 34l77 77-77 78c-10 10-10 25 0 34 9 9 24 9 33 0l78-78 78 78c9 9 25 9 34 0 9-9 9-24 0-34z"/>
<glyph glyph-name="checkmark" unicode="&#70;" d="M509 369c4 4 4 11 0 15l-75 77c-4 4-11 4-15 0l-227-233-99 102c-4 4-11 4-15 0l-75-77c-4-4-4-12 0-16l181-186c3-2 5-3 8-3 3 0 5 1 8 3z"/>
<glyph glyph-name="clock" unicode="&#71;" d="M256 492c65 0 120-24 166-70 46-46 70-101 70-166 0-65-24-120-70-166-46-46-101-70-166-70-65 0-120 24-166 70-46 46-70 101-70 166 0 65 24 120 70 166 46 46 101 70 166 70m0-420c51 0 95 18 131 54 35 36 53 79 53 130 0 51-18 95-53 131-36 35-80 53-131 53-51 0-94-18-130-53-36-36-54-80-54-131 0-51 18-94 54-130 36-36 79-54 130-54m18 317c0 0 0-125 0-125 0 0 77-77 77-77 0 0-25-25-25-25 0 0-87 87-87 87 0 0 0 140 0 140 0 0 35 0 35 0"/>
<glyph glyph-name="pets" unicode="&#72;" d="M433 79c0-34-22-51-64-51-36 0-68 13-110 13-41 0-64-19-108-19-41 0-58 29-58 50 0 43 32 49 68 85 34 36 55 77 93 77 45 0 58-47 90-85 27-32 89-30 89-70z m-96 220c47 0 72 55 72 111 0 53-34 78-57 78-49 0-72-49-72-80 0-34 13-109 57-109z m-167 0c42 0 53 55 53 111 0 38-26 72-51 72-45 0-66-47-66-85-2-34 25-98 64-98z m-49-53c0 36-30 70-57 70-28 0-64-44-64-91 0-30 25-76 62-76 33 0 59 46 59 97z m356 70c-27 7-57-19-83-63-29-53-12-94 24-102 34-9 68 25 87 72 12 38 0 87-28 93"/>
<glyph glyph-name="adult-shopping" unicode="&#73;" d="M256 512c-141 0-256-115-256-256 0-141 115-256 256-256 141 0 256 115 256 256 0 141-115 256-256 256z m0-476c-121 0-220 99-220 220 0 121 99 220 220 220 121 0 220-99 220-220 0-121-99-220-220-220z m0 419c-110 0-199-89-199-199 0-110 89-199 199-199 109 0 199 89 199 199 0 110-90 199-199 199z m-73-213l-33 0 0-33-28 0 0 33-34 0 0 28 34 0 0 33 28 0 0-33 33 0z m98-49l-35 0 0 84c-6-4-11-8-17-11-5-2-12-5-20-7l0 29c12 3 21 8 28 13 6 6 12 13 15 21l29 0z m127 6c-4-3-9-5-16-6-6-2-13-3-20-3-13 0-23 2-31 5-7 3-12 8-16 14-3 6-5 13-5 21 0 7 2 14 5 19 3 5 9 9 16 12-6 3-10 6-12 10-4 5-5 10-5 17 0 10 5 19 15 26 7 5 18 8 31 8 16 0 29-4 37-10 8-7 12-15 12-25 0-5-1-11-5-16-2-3-6-7-11-10 7-4 12-8 15-13 4-6 5-12 5-18 0-7-1-13-4-18-3-6-6-10-11-13z m-37 51c-4 0-8-1-11-5-3-3-5-8-5-14 0-5 2-10 5-14 3-3 7-5 12-5 4 0 8 2 11 5 3 4 5 9 5 14 0 6-2 10-5 14-3 4-7 5-12 5z m1 21c4 0 7 1 10 4 2 3 4 6 4 10 0 5-2 8-4 11-3 3-7 4-11 4-4 0-7-1-10-4-3-3-4-6-4-10 0-5 1-8 4-11 3-3 6-4 11-4z"/>
<glyph glyph-name="users" unicode="&#74;" d="M151 256c-31-1-56-13-76-37l-38 0c-15 0-29 4-39 12-11 8-16 19-16 34 0 67 12 101 35 101 1 0 5-2 13-6 7-4 16-8 27-12 12-5 23-7 34-7 13 0 26 3 38 7-1-7-1-13-1-19 0-26 8-51 23-73z m306-182c0-23-7-41-21-54-14-13-32-20-55-20l-250 0c-23 0-41 7-55 20-14 13-21 31-21 54 0 10 0 20 1 30 1 9 2 20 4 31 2 11 4 21 7 31 3 9 8 19 13 28 5 9 11 16 17 23 7 6 15 11 25 15 9 4 20 6 32 6 2 0 6-2 12-6 6-5 13-9 21-14 7-5 18-10 30-14 13-4 26-6 39-6 13 0 26 2 39 6 12 4 23 9 30 14 8 5 15 9 21 14 6 4 10 6 12 6 12 0 23-2 32-6 10-4 18-9 25-15 6-7 12-14 17-23 5-9 10-19 13-28 3-10 5-20 7-31 2-11 3-22 4-31 1-10 1-20 1-30z m-292 365c0-20-8-38-22-52-14-14-31-21-52-21-20 0-37 7-51 21-15 14-22 32-22 52 0 20 7 37 22 52 14 14 31 21 51 21 21 0 38-7 52-21 14-15 22-32 22-52z m201-110c0-30-11-56-32-77-22-22-48-33-78-33-30 0-56 11-78 33-21 21-32 47-32 77 0 30 11 56 32 78 22 21 48 32 78 32 30 0 56-11 78-32 21-22 32-48 32-78z m164-64c0-15-5-26-16-34-10-8-24-12-39-12l-38 0c-20 24-45 36-76 37 15 22 23 47 23 73 0 6 0 12-1 19 12-4 25-7 38-7 11 0 22 2 34 7 11 4 20 8 27 12 8 4 12 6 13 6 23 0 35-34 35-101z m-36 174c0-20-7-38-22-52-14-14-31-21-51-21-21 0-38 7-52 21-14 14-22 32-22 52 0 20 8 37 22 52 14 14 31 21 52 21 20 0 37-7 51-21 15-15 22-32 22-52z"/>
<glyph glyph-name="star" unicode="&#75;" d="M374 189l41-189-159 100-159-100 41 189-138 126 184 16 72 181 72-178 184-19z m41-189z"/>
<glyph glyph-name="thumbsup" unicode="&#77;" d="M0 304l93 0 0-288-93 0z m465 24l-146 0c0 0 30 94 30 110 0 46-46 58-46 58l-149-154c-10-9-14-21-14-33l0-245c0-26 21-48 46-48l203 0c18 0 35 12 42 29l74 173c5 9 7 21 7 31l0 31c0 26-21 48-47 48z"/>
<glyph glyph-name="bagicon" unicode="&#76;" d="M429 366l-82 0c-1 23-6 48-14 71-15 41-42 62-77 62-35 0-61-21-77-62-8-23-13-50-14-72l-82 0-16-354 378 0z m-234 66c13 34 32 51 61 51 29 0 48-17 61-51 8-21 11-45 14-66l-150 0c1 21 6 45 14 66z"/>
<glyph glyph-name="staricon" unicode="&#78;" d="M334 344l-80 160-78-160-176-26 128-124-30-175 156 82 159-82-31 175 128 124z"/>
<glyph glyph-name="share-icon" unicode="&#79;" d="M346 173c-16 0-32-7-45-16l-106 73c3 10 3 16 3 26 0 10-3 16-3 26l106 73c13-9 29-16 45-16 35 0 67 29 67 67 0 39-29 68-67 68-36 0-68-29-68-68 0-9 4-16 4-25l-106-77c-10 13-26 19-42 19-38 0-67-32-67-67 0-35 29-67 67-67 16 0 32 6 45 16l106-74c-3-6-3-16-3-25 0-36 28-68 67-68 35 0 67 29 67 68-3 38-35 67-70 67z"/>
<glyph glyph-name="share-code" unicode="&#80;" d="M445 374c0 0-3 0-7 0-22-12-51-12-73 7-19 19-26 48-16 70 0 3 0 3 0 7l-42 38-281-320 44-38c0 0 4 0 7 0 19 9 48 9 67-10 19-16 26-45 16-70 0-4 0-4 0-7l45-38 281 320z m-64 16c0-3-3-6-7-6-3 0-6 3-6 6 0 4 3 7 6 7 4 0 7-3 7-7z m-19-19c0-3-3-6-7-6-3 0-6 3-6 6 0 4 3 7 6 7 4 0 7-3 7-7z m-16-19c0-4-3-6-7-6-3 0-6 2-6 6 0 4 3 6 6 6 4 0 7-2 7-6z m-16-19c0-4-3-7-7-7-3 0-6 3-6 7 0 3 3 6 6 6 4 0 7-3 7-6z m-20-19c0-4-2-7-6-7-4 0-6 3-6 7 0 3 2 6 6 6 4 0 6-3 6-6z m-16-20c0-3-2-6-6-6-4 0-6 3-6 6 0 4 2 7 6 7 4 0 6-3 6-7z m-16-19c0-3-2-6-6-6-4 0-6 3-6 6 0 4 2 7 6 7 4 0 6-3 6-7z m-16-19c0-4-2-6-6-6-4 0-6 2-6 6 0 4 2 6 6 6 4 0 6-2 6-6z m-16-19c0-4-2-7-6-7-4 0-6 3-6 7 0 3 2 6 6 6 4 0 6-3 6-6z m-16-19c0-4-2-7-6-7-4 0-6 3-6 7 0 3 2 6 6 6 4 0 6-3 6-6z m-19-20c0-3-3-6-6-6-4 0-7 3-7 6 0 4 3 7 7 7 3 0 6-3 6-7z m-16-19c0-3-3-6-6-6-4 0-7 3-7 6 0 4 3 7 7 7 3 0 6-3 6-7z m-16-19c0-4-3-6-6-6-4 0-7 2-7 6 0 4 3 6 7 6 3 0 6-2 6-6z m-19-19c0-4-3-7-6-7-4 0-7 3-7 7 0 3 3 6 7 6 3 0 6-3 6-6z m-16-19c0-4-3-7-6-7-4 0-7 3-7 7 0 3 3 6 7 6 3 0 6-3 6-6z m-16-20c0-3-3-6-6-6-4 0-7 3-7 6 0 4 3 7 7 7 3 0 6-3 6-7z"/>
<glyph glyph-name="arrow-left-c" unicode="&#81;" d="M189 384l-100-105c-6-6-9-14-9-23 0-9 3-16 9-22l100-106c12-12 32-12 44 0 11 13 11 33 0 46l-49 50 217 0c17 0 31 14 31 32 0 18-14 32-31 32l-217 0 49 50c12 13 12 33 0 46-12 12-32 12-44 0z"/>
<glyph glyph-name="info" unicode="&#82;" d="M333 58c-19-7-35-13-45-16-13-4-26-7-38-7-23 0-42 7-55 16-16 13-22 26-22 45 0 6 0 13 0 19 0 7 3 16 3 23l29 86c3 10 3 16 6 22 3 7 3 13 3 20 0 9-3 19-6 22-10 3-16 6-29 6-6 0-13 0-19-3-6 0-13-3-16-6l6 25c16 10 29 13 45 20 13 3 29 6 42 6 19 0 38-6 51-16 13-10 19-26 19-42 0-3 0-9 0-19 0-9-3-16-3-25l-22-84c-4-6-4-12-7-22 0-10-3-16-3-19 0-10 3-19 6-23 7-3 13-6 26-6 6 0 13 0 19 3 7 3 13 3 16 7z m-48 310c-23 0-42 13-51 29-4 6-7 13-7 22 0 3 0 7 0 13 0 0 0 3 0 3 7 23 29 39 55 39 32 0 57-26 57-55 3-29-22-51-54-51z"/>
<glyph glyph-name="star-o" unicode="&#83;" d="M343 225l88 85-121 18-54 109-54-109-121-18 88-85-21-120 108 57 108-57z m151 102c0-4-3-9-8-14l-103-101 24-143c0-1 0-3 0-5 0-10-3-15-11-15-4 0-8 2-12 4l-128 67-128-67c-4-2-8-4-12-4-4 0-7 2-9 5-2 2-3 6-3 10 0 1 0 3 1 5l24 143-104 101c-4 6-7 10-7 14 0 7 6 12 16 13l144 21 64 130c4 8 8 12 14 12 6 0 10-4 14-12l64-130 144-21c10-1 16-6 16-13z"/>
<glyph glyph-name="star-1" unicode="&#84;" d="M494 327c0-4-3-9-8-14l-103-101 24-143c0-1 0-3 0-5 0-4-1-8-3-10-2-3-4-5-8-5-4 0-8 2-12 4l-128 67-128-67c-4-2-8-4-12-4-4 0-7 2-9 5-2 2-3 6-3 10 0 1 0 3 1 5l24 143-104 101c-4 6-7 10-7 14 0 7 6 12 16 13l144 21 64 130c4 8 8 12 14 12 6 0 10-4 14-12l64-130 144-21c10-1 16-6 16-13z"/>
<glyph glyph-name="arrow-left-breadcrumbs" unicode="&#85;" d="M91 245l240-240c7-7 17-7 23 0l67 66c6 7 6 17 0 23l-136 136 0 0-15 15c-6 6-6 16 0 22l19 19 0 0 132 132c6 6 6 16 0 23l-67 66c-6 7-16 7-23 0l-173-173c0 0 0 0 0 0l-67-67c-6-6-6-16 0-22z"/>
<glyph glyph-name="arrow-right-breadcrumbs" unicode="&#86;" d="M439 268l-240 240c-6 6-16 6-22 0l-67-67c-6-6-6-17 0-23l136-136 0 0 14-14c7-7 7-17 0-23l-18-18 0 0-132-133c-6-6-6-16 0-23l67-66c6-7 16-7 22 0l174 173c0 0 0 0 0 0l66 67c7 6 7 16 0 23z"/>
<glyph glyph-name="thumbs-o-down" unicode="&#87;" d="M110 384c0 5-2 9-6 13-3 3-8 5-13 5-5 0-9-2-12-5-4-4-6-8-6-13 0-5 2-9 6-13 3-3 7-5 12-5 5 0 10 2 13 5 4 4 6 8 6 13z m329-165c0 7-2 15-6 24-4 8-9 13-16 13 3 3 6 8 8 14 1 5 2 11 2 15 0 14-5 25-15 34 4 7 5 13 5 20 0 7-1 14-5 21-3 7-7 12-13 15 1 6 1 11 1 16 0 16-4 28-14 36-9 8-22 12-39 12l-36 0c-25 0-58-7-98-21-1 0-4-1-8-3-5-2-8-3-10-4-2 0-6-1-10-3-5-1-8-2-11-3-3-1-6-1-10-2-3 0-6-1-9-1l-9 0 0-183 9 0c3 0 7 0 11-2 3-2 7-4 11-8 4-3 8-7 11-10 3-3 7-8 11-13 5-5 8-9 10-12 3-3 6-7 9-11 4-5 6-8 7-9 10-13 18-22 22-26 8-8 13-19 17-31 3-13 6-25 9-36 2-11 5-19 10-24 19 0 31 4 37 13 6 9 9 23 9 41 0 12-4 27-14 46-9 20-13 35-13 46l100 0c10 0 18 4 26 11 7 7 11 16 11 25z m36 0c0-19-7-37-21-51-15-14-32-22-52-22l-50 0c9-19 14-37 14-55 0-22-4-40-10-53-7-13-17-23-29-29-13-6-28-9-44-9-9 0-18 4-25 11-7 6-12 14-16 23-4 9-6 18-7 26-1 8-3 16-5 24-2 8-5 14-9 18-9 10-19 22-30 37-20 25-33 39-40 44l-78 0c-10 0-19 3-26 11-7 7-10 15-10 25l0 183c0 10 3 19 10 26 7 7 16 11 26 11l82 0c5 0 18 4 40 11 24 9 45 15 64 19 18 4 37 6 57 6l32 0c26 0 48-7 64-22 17-15 25-36 25-62l0-1c11-15 17-32 17-51 0-4 0-8-1-12 7-13 11-27 11-42 0-6-1-13-3-19 10-14 14-30 14-47z"/>
<glyph glyph-name="thumbs-o-up" unicode="&#88;" d="M110 128c0 5-2 9-6 13-3 3-8 5-13 5-5 0-9-2-12-5-4-4-6-8-6-13 0-5 2-9 6-13 3-3 7-5 12-5 5 0 10 2 13 5 4 4 6 8 6 13z m329 165c0 9-4 18-11 25-8 7-16 11-26 11l-100 0c0 11 4 26 13 46 10 19 14 34 14 46 0 18-3 32-9 41-6 9-18 13-37 13-5-5-8-13-10-24-3-11-6-23-9-36-4-12-9-23-17-31-4-4-12-13-22-26-1-1-3-4-7-9-3-4-6-8-9-11-2-3-5-7-10-12-4-5-8-10-11-13-3-3-7-7-11-10-4-4-8-6-11-8-4-2-8-2-11-2l-9 0 0-183 9 0c3 0 6-1 9-1 4-1 7-1 10-2 3-1 6-2 11-3 4-2 8-3 10-3 2-1 5-2 10-4 4-2 7-3 8-3 40-14 73-21 98-21l34 0c37 0 55 16 55 48 0 5 0 10-1 16 6 3 10 8 13 15 4 7 5 14 5 21 0 7-1 13-5 20 10 9 15 20 15 34 0 4-1 10-2 15-2 6-5 11-8 14 7 0 12 5 16 13 4 9 6 17 6 24z m36 0c0-17-4-33-14-47 2-6 3-13 3-19 0-15-4-29-11-42 1-4 1-8 1-12 0-19-6-36-17-51 0-26-8-47-24-62-17-16-38-23-65-23l-37 0c-18 0-36 2-54 6-18 4-39 11-62 19-22 7-35 11-40 11l-82 0c-10 0-19 4-26 11-7 7-10 16-10 26l0 183c0 10 3 18 10 25 7 8 16 11 26 11l78 0c7 5 20 19 40 44 11 15 21 27 30 37 5 5 8 13 10 24 2 12 5 24 9 37 4 12 10 22 18 30 7 7 16 11 25 11 16 0 31-3 44-9 12-6 22-16 29-29 6-13 10-31 10-53 0-18-5-36-14-55l50 0c20 0 37-8 52-22 14-14 21-32 21-51z"/>
<glyph glyph-name="thumbicon" unicode="&#89;" d="M469 238c-10-39-22-78-33-117-3-12-6-25-10-38-7-23-25-37-49-37-34-1-68 0-102-1-16 0-30 6-39 18-15 20-33 27-58 22-4-25-22-32-46-30-18 1-37 0-55 0-21 0-33 12-33 32-1 61-1 121-1 182 0 21 12 33 33 33 22 0 44 0 66 1 12 0 21-4 29-14 3-3 9-5 13-5 29 6 51 20 62 49 8 19 17 36 23 56 5 15 5 32 6 48 1 22 10 30 32 30 33 0 55-20 53-53-1-26-7-51-11-77 0-4-1-8-2-13 24-8 47-15 71-21 23-6 42-17 51-41 0-8 0-16 0-24z m-292-133c34 8 58-7 78-32 4-5 14-7 22-7 32-1 64 0 96 0 20 0 29 7 34 26 13 49 26 97 40 145 5 22-2 35-24 42-28 9-55 17-83 25-13 4-16 10-13 23 5 29 10 58 13 88 2 20-12 31-31 32-10 0-12-3-13-13-1-18-2-37-7-54-6-19-15-37-23-56-13-33-38-51-71-60-6-2-12-2-18-3 0-52 0-102 0-156z m-21 72c0 30-1 59 0 89 0 10-4 16-15 15-21-1-42-1-63 0-11 0-15-5-15-15 1-58 1-117 1-175 0-12 5-16 16-15 20 0 41 0 61 0 12-1 16 5 16 17-1 28-1 56-1 84z"/>
</font>
</defs>
</svg>
